# AST/ASF file generated using VICON BodyLanguage
# -----------------------------------------------
:version 1.10
:name VICON
:units
  mass 1.0
  length 0.45
  angle deg
:documentation
   .ast/.asf automatically generated from VICON data using
   VICON BodyBuilder and BodyLanguage model FoxedUp or BRILLIANT.MOD
:root
   order TX TY TZ RX RY RZ
   axis XYZ
   position 0 0 0  
   orientation 0 0 0 
:bonedata
  begin
     id 1 
     name lhipjoint
     direction 0.576517 -0.752066 0.319413 
     length 2.45433 
     axis 0 0 0  XYZ
  end
  begin
     id 2 
     name lfemur
     direction 0.34202 -0.939693 0  
     length 7.54459  
     axis 0 0 20  XYZ
    dof rx ry rz
    limits (-160.0 20.0)
           (-70.0 70.0)
           (-60.0 70.0)
  end
  begin
     id 3 
     name ltibia
     direction 0.34202 -0.939693 0   
     length 7.73986   
     axis 0 0 20   XYZ
    dof rx
    limits (-10.0 170.0)
  end
  begin
     id 4 
     name lfoot
     direction 0.090693 -0.249177 0.964202   
     length 2.28437   
     axis -90 7.62852e-016 20   XYZ
    dof rx rz
    limits (-45.0 90.0)
           (-70.0 20.0)
  end
  begin
     id 5 
     name ltoes
     direction 1.5356e-011 -4.21928e-011 1   
     length 1.14243   
     axis -90 7.62852e-016 20   XYZ
    dof rx
    limits (-90.0 20.0)
  end
  begin
     id 6 
     name rhipjoint
     direction -0.573937 -0.753736 0.320122   
     length 2.44889  
     axis 0 0 0  XYZ 
  end
  begin
     id 7 
     name rfemur
     direction -0.34202 -0.939693 0   
     length 7.50166   
     axis 0 0 -20   XYZ
    dof rx ry rz
    limits (-160.0 20.0)
           (-70.0 70.0)
           (-70.0 60.0)
  end
  begin
     id 8 
     name rtibia
     direction -0.34202 -0.939693 0   
     length 7.54266   
     axis 0 0 -20   XYZ
    dof rx
    limits (-10.0 170.0)
 end
 begin
     id 9 
     name rfoot
     direction -0.114017 -0.31326 0.942798   
     length 2.34212  
     axis -90 -7.62852e-016 -20   XYZ
    dof rx rz
    limits (-45.0 90.0)
           (-20.0 70.0)
  end
  begin
     id 10 
     name rtoes
     direction -1.53557e-011 -4.21867e-011 1   
     length 1.16246   
     axis -90 -7.62852e-016 -20   XYZ
    dof rx
    limits (-90.0 20.0)
  end
  begin
     id 11 
     name lowerback
     direction -0.0228371 0.999155 -0.034167   
     length 2.0537   
     axis 0 0 0   XYZ
    dof rx ry rz
    limits (-20.0 45.0)
           (-30.0 30.0)
           (-30.0 30.0)
  end
  begin
     id 12 
     name upperback
     direction 0.0198981 0.999794 0.00389455   
     length 2.05302   
     axis 0 0 0   XYZ
    dof rx ry rz
    limits (-20.0 45.0)
           (-30.0 30.0)
           (-30.0 30.0)
  end
  begin
     id 13 
     name thorax
     direction 0.0304566 0.99935 0.0192987   
     length 2.05315   
     axis 0 0 0   XYZ
    dof rx ry rz
    limits (-20.0 45.0)
           (-30.0 30.0)
           (-30.0 30.0)
  end
  begin
     id 14 
     name lowerneck
     direction -0.0196762 0.99417 0.106017   
     length 1.82056   
     axis 0 0 0   XYZ
    dof rx ry rz
    limits (-20.0 45.0)
           (-30.0 30.0)
           (-30.0 30.0)
  end
  begin
     id 15 
     name upperneck
     direction 0.00517787 0.9802 -0.197944   
     length 1.83835   
     axis 0 0 0   XYZ
    dof rx ry rz
    limits (-20.0 45.0)
           (-30.0 30.0)
           (-30.0 30.0)
  end
  begin
     id 16
     name head
     direction 0.00211419 0.996945 -0.078081  
     length 1.85629  
     axis 0 0 0   XYZ
    dof rx ry rz
    limits (-20.0 45.0)
           (-30.0 30.0)
           (-30.0 30.0)
  end
  begin
     id 17 
     name lclavicle
     direction 0.930001 0.365811 -0.0357824  
     length 3.81961  
     axis 0 0 0   XYZ
    dof ry rz
    limits (-20.0 10.0)
           (0.0 20.0)
  end
  begin
     id 18 
     name lhumerus
     direction 1 -4.48968e-011 -3.06644e-027   
     length 5.14507   
     axis 180 -30 -90   XYZ
    dof rx ry rz
    limits (-60.0 90.0)
           (-90.0 90.0)
           (-90.0 90.0)
  end
  begin
     id 19
     name lradius
     direction 1 -4.48965e-011 9.06925e-028   
     length 3.50646   
     axis 180 -30 -90   XYZ
    dof rx
    limits (-10.0 170.0)
  end
  begin
     id 20
     name lwrist
     direction 1 -4.48957e-011 1.03922e-027   
     length 1.75323   
     axis -2.56395e-016 90 90   XYZ
    dof ry
    limits (-180.0 0.0)
 end
  begin
     id 21 
     name lhand
     direction 1 -4.48967e-011 2.08017e-027   
     length 0.629969   
     axis -1.32723e-015 90 90   XYZ
    dof rx rz
    limits (-90.0 90.0)
           (-45.0 45.0)
  end
  begin
     id 22 
     name lfingers
     direction 1 -4.49089e-011 4.20095e-027   
     length 0.507897   
     axis -2.6545e-015 90 90   XYZ
    dof rx
    limits (0.0 90.0)
  end
  begin
     id 23
     name lthumb
     direction 0.707107 -6.35001e-011 0.707107   
     length 0.729241   
     axis -90 45 5.05613e-014   XYZ
    dof rx rz
    limits (-45.0 45.0)
           (-45.0 45.0)
  end
  begin
     id 24 
     name rclavicle
     direction -0.881882 0.464123 -0.0829113   
     length 3.47515  
     axis 0 0 0   XYZ 
    dof ry rz
    limits (-10.0 20.0)
           (-20.0 0.0)
  end
  begin
     id 25 
     name rhumerus
     direction -1 -4.48961e-011 -1.55672e-027  
     length 5.232   
     axis 180 30 90   XYZ
    dof rx ry rz
    limits (-90.0 60.0)
           (-90.0 90.0)
           (-90.0 90.0)
  end
  begin
     id 26 
     name rradius
     direction -1 -4.48963e-011 6.18178e-029   
     length 3.65641   
     axis 180 30 90   XYZ
    dof rx
    limits (-10.0 170.0)
  end
  begin
     id 27 
     name rwrist
     direction -1 -4.48982e-011 1.04136e-027   
     length 1.8282   
     axis -2.56395e-016 -90 -90   XYZ
    dof ry
    limits (-180.0 0.0)
  end
  begin
     id 28
     name rhand
     direction -1 -4.48929e-011 2.07378e-027   
     length 0.656807   
     axis -1.32723e-015 -90 -90   XYZ
    dof rx rz
    limits (-90.0 90.0)
           (-45.0 45.0)
  end
  begin
     id 29
     name rfingers
     direction -1 -4.489e-011 4.13816e-027   
     length 0.529535   
     axis -2.6545e-015 -90 -90   XYZ
    dof rx
    limits (0.0 90.0)
  end
  begin
     id 30
     name rthumb
     direction -0.707107 -6.34843e-011 0.707107   
     length 0.760309   
     axis -90 -45 -5.05613e-014   XYZ
    dof rx rz
    limits (-45.0 45.0)
           (-45.0 45.0)
  end
:hierarchy
  begin
    root lhipjoint rhipjoint lowerback
    lhipjoint lfemur
    lfemur ltibia
    ltibia lfoot
    lfoot ltoes
    rhipjoint rfemur
    rfemur rtibia
    rtibia rfoot
    rfoot rtoes
    lowerback upperback
    upperback thorax
    thorax lowerneck lclavicle rclavicle
    lowerneck upperneck
    upperneck head
    lclavicle lhumerus
    lhumerus lradius
    lradius lwrist
    lwrist lhand lthumb
    lhand lfingers
    rclavicle rhumerus
    rhumerus rradius
    rradius rwrist
    rwrist rhand rthumb
    rhand rfingers
  end

#!OML:ASF H:\ManfredETheater\Project 1\Capture day 1\Session 1\subject.ASF
:FULLY-SPECIFIED
:DEGREES
31
root -10.7042 16.5915 -26.9967 18.6515 -8.20499 2.55875
lowerback 13.0813 -0.27201 -5.68159
upperback -0.196173 -1.15362 1.03707
thorax -7.43784 -0.326238 4.54611
lowerneck -22.7336 1.93346 -1.4664
upperneck 3.16921 3.17208 -2.34782
head 4.52348 1.3583 -0.195622
rclavicle 2.18166e-014 1.86858e-014
rhumerus -75.7564 -2.23322 -68.3264
rradius 84.7475
rwrist -16.8807
rhand -27.8491 11.1084
rfingers 7.12502
rthumb -1.24015 -18.8677
lclavicle 2.18166e-014 1.86858e-014
lhumerus -37.9028 -20.2299 96.8243
lradius 130.92
lwrist 15.2804
lhand -20.6932 -11.0328
lfingers 7.12502
lthumb 5.67056 18.8713
rfemur -65.2637 -8.67033 13.5767
rtibia 44.2411
rfoot 0.746282 -0.267507
rtoes -38.9893
lfemur 5.16601 -12.3581 -39.3585
ltibia 40.8022
lfoot 14.9498 -8.17421
ltoes -1.9192
32
root -10.6892 16.565 -26.4423 18.19 -8.13073 2.57361
lowerback 13.2784 -0.230793 -5.45862
upperback -0.133885 -1.06162 1.20531
thorax -7.49333 -0.285954 4.58671
lowerneck -22.6094 1.90464 -1.59838
upperneck 3.16912 3.2076 -2.76433
head 4.51265 1.34434 -0.304009
rclavicle 3.97569e-016 2.5842e-015
rhumerus -74.2555 -2.54763 -68.5186
rradius 85.2628
rwrist -16.5822
rhand -27.9284 11.1219
rfingers 7.12502
rthumb -1.3168 -18.8538
lclavicle 3.97569e-016 2.5842e-015
lhumerus -38.7371 -18.3503 96.3048
lradius 127.153
lwrist 13.9336
lhand -21.0559 -10.7724
lfingers 7.12502
lthumb 5.3204 19.1409
rfemur -64.6289 -8.74203 13.6631
rtibia 43.4041
rfoot 1.66255 -0.335487
rtoes -38.2247
lfemur 4.42542 -12.0396 -39.5927
ltibia 44.7225
lfoot 13.8352 -7.5728
ltoes -2.1208
33
root -10.6748 16.5388 -25.8941 17.7113 -7.93986 2.42072
lowerback 13.5846 -0.196572 -5.07018
upperback -0.0589251 -0.95389 1.41562
thorax -7.59997 -0.242023 4.57738
lowerneck -22.4465 1.85663 -1.71578
upperneck 3.11771 3.20809 -3.15915
head 4.47972 1.31674 -0.411694
rclavicle 4.57205e-015 8.34896e-015
rhumerus -72.5671 -2.85774 -68.8488
rradius 85.6328
rwrist -16.2645
rhand -27.9559 11.1059
rfingers 7.12502
rthumb -1.34333 -18.8697
lclavicle 4.57205e-015 8.34896e-015
lhumerus -39.5064 -16.5333 95.8751
lradius 123.058
lwrist 12.7549
lhand -21.4099 -10.5129
lfingers 7.12502
lthumb 4.9786 19.4086
rfemur -63.9264 -8.86663 13.9444
rtibia 43.4121
rfoot 2.01563 -0.464372
rtoes -37.1677
lfemur 3.30659 -11.5188 -39.4675
ltibia 49.1285
lfoot 12.847 -7.19942
ltoes -2.3521
34
root -10.6612 16.514 -25.3523 17.1882 -7.66723 2.07767
lowerback 14.0222 -0.162835 -4.51046
upperback 0.0382025 -0.819118 1.6579
thorax -7.76072 -0.189858 4.50147
lowerneck -22.2495 1.79037 -1.80948
upperneck 3.02161 3.16883 -3.49829
head 4.42657 1.2759 -0.509634
rclavicle -6.95746e-015 -7.95139e-015
rhumerus -70.7021 -3.14899 -69.3377
rradius 85.842
rwrist -15.9855
rhand -27.9282 11.047
rfingers 7.12502
rthumb -1.31652 -18.9287
lclavicle -6.95746e-015 -7.95139e-015
lhumerus -40.1865 -14.7834 95.5053
lradius 118.712
lwrist 12.0305
lhand -21.7263 -10.2347
lfingers 7.12502
lthumb 4.67306 19.6938
rfemur -63.1048 -8.94641 14.3324
rtibia 44.2237
rfoot 1.82846 -0.66362
rtoes -35.8763
lfemur 1.8803 -10.8367 -38.9926
ltibia 53.8668
lfoot 11.9791 -7.04031
ltoes -2.53844
35
root -10.6488 16.4894 -24.8177 16.5874 -7.34482 1.55717
lowerback 14.6203 -0.125853 -3.80303
upperback 0.165073 -0.653291 1.91774
thorax -7.98263 -0.127418 4.35564
lowerneck -22.0365 1.70712 -1.87185
upperneck 2.89914 3.08869 -3.7616
head 4.36111 1.22225 -0.592466
rclavicle -2.32578e-014 3.97569e-016
rhumerus -68.6644 -3.40312 -69.9945
rradius 85.8746
rwrist -15.79
rhand -27.8656 10.9346
rfingers 7.12502
rthumb -1.25611 -19.0414
lclavicle -2.32578e-014 3.97569e-016
lhumerus -40.7509 -13.0855 95.1575
lradius 114.166
lwrist 11.9557
lhand -21.9383 -9.97109
lfingers 7.12502
lthumb 4.46839 19.9618
rfemur -62.1082 -8.92336 14.7444
rtibia 45.7239
rfoot 1.11265 -1.05463
rtoes -34.633
lfemur 0.215897 -10.0204 -38.2114
ltibia 58.8093
lfoot 11.1308 -7.00373
ltoes -2.71413
36
root -10.6378 16.4626 -24.2907 15.8905 -7.00888 0.873664
lowerback 15.381 -0.0823935 -2.97277
upperback 0.330832 -0.450778 2.18309
thorax -8.25519 -0.0524894 4.13837
lowerneck -21.827 1.60922 -1.89575
upperneck 2.76263 2.97025 -3.94714
head 4.28999 1.15658 -0.660237
rclavicle -3.97569e-015 7.95139e-015
rhumerus -66.4516 -3.60296 -70.8192
rradius 85.7237
rwrist -15.6959
rhand -27.7943 10.7613
rfingers 7.12502
rthumb -1.18723 -19.2152
lclavicle -3.97569e-015 7.95139e-015
lhumerus -41.1719 -11.4167 94.7917
lradius 109.445
lwrist 12.5009
lhand -22.07 -9.76849
lfingers 7.12502
lthumb 4.34116 20.167
rfemur -60.8969 -8.75984 15.147
rtibia 47.7357
rfoot -0.0611986 -1.66041
rtoes -33.5557
lfemur -1.63084 -9.07967 -37.1627
ltibia 63.845
lfoot 10.1615 -6.97768
ltoes -3.01814
37
root -10.6283 16.4319 -23.7719 15.1041 -6.68935 0.0187982
lowerback 16.286 -0.033061 -2.0208
upperback 0.536139 -0.204904 2.4564
thorax -8.56488 0.0371237 3.84923
lowerneck -21.6221 1.5031 -1.87467
upperneck 2.61368 2.82315 -4.07752
head 4.21453 1.08182 -0.720128
rclavicle 1.11319e-014 -1.94809e-014
rhumerus -64.0606 -3.71775 -71.7918
rradius 85.3802
rwrist -15.6854
rhand -27.7359 10.5452
rfingers 7.12502
rthumb -1.13085 -19.4315
lclavicle 1.11319e-014 -1.94809e-014
lhumerus -41.4411 -9.74754 94.3795
lradius 104.561
lwrist 13.4613
lhand -22.1483 -9.70849
lfingers 7.12502
lthumb 4.26558 20.2285
rfemur -59.426 -8.43685 15.5737
rtibia 49.9752
rfoot -1.5321 -2.51743
rtoes -32.7438
lfemur -3.62121 -8.01501 -35.8491
ltibia 68.8312
lfoot 8.98963 -6.85672
ltoes -3.46532
38
root -10.6197 16.3968 -23.2608 14.2576 -6.39503 -1.00847
lowerback 17.2943 0.016426 -0.948599
upperback 0.77066 0.0851528 2.74838
thorax -8.89598 0.141182 3.49787
lowerneck -21.4212 1.38963 -1.82635
upperneck 2.45785 2.65552 -4.17023
head 4.13661 1.00015 -0.774023
rclavicle -9.93923e-015 2.94201e-014
rhumerus -61.5017 -3.70802 -72.8717
rradius 84.8504
rwrist -15.7169
rhand -27.7139 10.2937
rfingers 7.12502
rthumb -1.1096 -19.6832
lclavicle -9.93923e-015 2.94201e-014
lhumerus -41.5558 -8.06432 93.9126
lradius 99.5079
lwrist 14.4672
lhand -22.2724 -9.87477
lfingers 7.12502
lthumb 4.14575 20.0646
rfemur -57.7353 -7.97877 16.0846
rtibia 52.3132
rfoot -3.26394 -3.61053
rtoes -32.3872
lfemur -5.76684 -6.84126 -34.2679
ltibia 73.7277
lfoot 7.5098 -6.5769
ltoes -4.101
39
root -10.6072 16.3869 -22.7494 13.3962 -6.10462 -2.18205
lowerback 18.3425 0.0509967 0.229082
upperback 1.02111 0.403531 3.06652
thorax -9.22258 0.252083 3.10252
lowerneck -21.2345 1.27039 -1.76355
upperneck 2.3073 2.47627 -4.25196
head 4.06203 0.913425 -0.827368
rclavicle -1.70955e-014 9.54166e-015
rhumerus -58.7895 -3.53617 -74.0161
rradius 84.1539
rwrist -15.7239
rhand -27.7742 9.98823
rfingers 7.12502
rthumb -1.16785 -19.9883
lclavicle -1.70955e-014 9.54166e-015
lhumerus -41.5318 -6.37228 93.3879
lradius 94.2887
lwrist 15.0231
lhand -22.5051 -10.2402
lfingers 7.12502
lthumb 3.92101 19.7034
rfemur -55.6862 -7.45595 16.7098
rtibia 54.4645
rfoot -5.24194 -4.91375
rtoes -32.5357
lfemur -8.0407 -5.59742 -32.4229
ltibia 78.3182
lfoot 5.83169 -6.15847
ltoes -4.69385
40
root -10.5995 16.3481 -22.2503 12.5869 -5.8123 -3.43761
lowerback 19.3436 0.0696422 1.44514
upperback 1.26198 0.737242 3.41124
thorax -9.5216 0.366428 2.70464
lowerneck -21.0545 1.14562 -1.71103
upperneck 2.17374 2.29384 -4.33945
head 3.9935 0.824156 -0.880727
rclavicle -1.23246e-014 5.96354e-015
rhumerus -55.9724 -3.17427 -75.1667
rradius 83.3458
rwrist -15.6267
rhand -27.8947 9.63085
rfingers 7.12502
rthumb -1.28416 -20.345
lclavicle -1.23246e-014 5.96354e-015
lhumerus -41.4163 -4.70884 92.8282
lradius 88.9416
lwrist 14.7366
lhand -22.9193 -10.705
lfingers 7.12502
lthumb 3.521 19.2457
rfemur -53.6348 -6.90355 17.4486
rtibia 56.4559
rfoot -7.26545 -6.35689
rtoes -33.2146
lfemur -10.5909 -4.31916 -30.4139
ltibia 82.7505
lfoot 3.90049 -5.61476
ltoes -5.0828
41
root -10.5916 16.3121 -21.7555 11.8878 -5.48688 -4.67379
lowerback 20.2241 0.0721206 2.60844
upperback 1.46673 1.06146 3.77057
thorax -9.78201 0.476597 2.35089
lowerneck -20.8908 1.0154 -1.68235
upperneck 2.08251 2.11387 -4.44141
head 3.94048 0.733724 -0.934135
rclavicle -1.11319e-014 -1.19271e-014
rhumerus -53.1291 -2.60932 -76.2844
rradius 82.52
rwrist -15.3331
rhand -28.1046 9.23519
rfingers 7.12502
rthumb -1.48693 -20.7394
lclavicle -1.11319e-014 -1.19271e-014
lhumerus -41.2817 -3.14052 92.2612
lradius 83.5698
lwrist 13.4016
lhand -23.5329 -11.1322
lfingers 7.12502
lthumb 2.92843 18.8274
rfemur -51.4945 -6.40114 18.2162
rtibia 58.1123
rfoot -9.31031 -7.85554
rtoes -34.1772
lfemur -13.4362 -3.07031 -28.357
ltibia 86.8232
lfoot 1.88047 -5.00163
ltoes -5.20387
42
root -10.5837 16.2792 -21.2638 11.3421 -5.09752 -5.82294
lowerback 20.9254 0.0617459 3.66015
upperback 1.61586 1.35791 4.13496
thorax -9.99675 0.577073 2.07152
lowerneck -20.743 0.878805 -1.68019
upperneck 2.04402 1.93657 -4.56317
head 3.9062 0.641672 -0.988911
rclavicle -6.36111e-015 9.54166e-015
rhumerus -50.3537 -1.85519 -77.3378
rradius 81.8045
rwrist -14.8422
rhand -28.3605 8.84052
rfingers 7.12502
rthumb -1.73409 -21.1322
lclavicle -6.36111e-015 9.54166e-015
lhumerus -41.2236 -1.75756 91.7192
lradius 78.3749
lwrist 11.1828
lhand -24.2665 -11.4555
lfingers 7.12502
lthumb 2.21997 18.5127
rfemur -49.3409 -5.99479 18.9638
rtibia 59.4619
rfoot -11.2723 -9.46795
rtoes -35.4308
lfemur -16.6304 -1.89403 -26.3666
ltibia 90.4948
lfoot -0.180555 -4.37274
ltoes -5.1485
